PathFileType	4	(X/Y/Z)	s09c0201.trc
DataRate	CameraRate	NumFrames	NumMarkers	Units	OrigDataRate	OrigDataStartFrame	OrigNumFrames
200	200	6	50	mm	200	250	2000
Frame#	Time	racr			lacr			c7			jug			rlel			rdr			llel			ldr			s2			lic			ric			lasi			rasi			rpsi			lpsi			rgt			lgt			rth1			rth2			rth3			rth4			rlfc			rmfc			rsh1			rsh2			rsh3			rsh4			rlmal			rmmal			rcal			rtoe			rmt5			lth1			lth2			lth4			lth3			llfc			lmfc			llmal			lmmal			lcal			lmt5			lsh1			lsh2			lsh3			lsh4			ltoe			SBIKE			LBIKE			RBIKE			
		X1	Y1	Z1	X2	Y2	Z2	X3	Y3	Z3	X4	Y4	Z4	X5	Y5	Z5	X6	Y6	Z6	X7	Y7	Z7	X8	Y8	Z8	X9	Y9	Z9	X10	Y10	Z10	X11	Y11	Z11	X12	Y12	Z12	X13	Y13	Z13	X14	Y14	Z14	X15	Y15	Z15	X16	Y16	Z16	X17	Y17	Z17	X18	Y18	Z18	X19	Y19	Z19	X20	Y20	Z20	X21	Y21	Z21	X22	Y22	Z22	X23	Y23	Z23	X24	Y24	Z24	X25	Y25	Z25	X26	Y26	Z26	X27	Y27	Z27	X28	Y28	Z28	X29	Y29	Z29	X30	Y30	Z30	X31	Y31	Z31	X32	Y32	Z32	X33	Y33	Z33	X34	Y34	Z34	X35	Y35	Z35	X36	Y36	Z36	X37	Y37	Z37	X38	Y38	Z38	X39	Y39	Z39	X40	Y40	Z40	X41	Y41	Z41	X42	Y42	Z42	X43	Y43	Z43	X44	Y44	Z44	X45	Y45	Z45	X46	Y46	Z46	X47	Y47	Z47	X48	Y48	Z48	X49	Y49	Z49	X50	Y50	Z50	
250	1.2500	467.364075	1331.243885	-87.020980	478.984964	1304.936060	-423.905500	435.038368	1358.910213	-242.419236	439.704606	1224.561051	-252.087447	504.344458	1087.231662	2.021285	692.561824	909.960674	-39.767606	453.359443	1034.963413	-512.195721	671.379424	907.636577	-455.693142	-2.957718	1109.314327	-235.879823	128.178801	1125.952055	-385.365991	145.905592	1121.638144	-92.847098	178.722497	1074.434969	-366.124267	194.416368	1069.780369	-115.335956	27.572508	1141.599530	-176.917099	17.177257	1150.387961	-287.135264	127.163390	969.841244	-50.572006	103.704828	1008.332079	-435.025762	210.473705	855.706548	-53.793711	276.967968	799.322453	-60.682037	301.783787	714.068807	-66.952276	303.066877	815.332247	-81.158402	334.381382	615.073901	-96.321643	317.012362	600.606859	-193.422570	256.007201	545.039069	-66.580739	221.583807	463.326086	-80.124637	150.842573	410.842671	-80.684861	242.293568	451.081902	-112.434883	86.811797	334.412895	-81.889579	94.959448	342.966285	-160.760281	-0.982847	329.616890	-121.684444	238.530286	218.771898	-125.472604	156.719189	235.427800	-60.507512	228.071688	951.481875	-434.524509	313.256588	950.808522	-430.665051	324.330168	984.021096	-415.150810	391.004773	904.536082	-433.125603	480.003943	847.046702	-415.629465	500.459665	838.194405	-316.001407	355.647947	507.463870	-409.282979	374.382656	514.577892	-338.960343	279.962604	482.435804	-371.262986	438.331051	412.500313	-433.402727	450.771276	751.761967	-434.058542	442.592660	665.856894	-421.727527	390.811781	593.698838	-417.792141	467.196627	660.798929	-391.464089	530.577321	413.822419	-364.148198	-65.222562	852.786502	-240.671913	21.168568	83.952719	-442.213850	21.195475	83.940421	-43.944005	
251	1.2550	467.361627	1331.270260	-86.959362	478.957671	1304.953048	-423.896044	435.016436	1358.927587	-242.399979	439.720013	1224.578940	-252.055851	504.335252	1087.234020	2.039693	692.573717	909.968810	-39.759264	453.365089	1034.978179	-512.139776	671.380443	907.643387	-455.676492	-2.929556	1109.303453	-235.826226	128.196191	1125.949178	-385.340637	145.913054	1121.614276	-92.819490	178.745227	1074.453807	-366.105300	194.420220	1069.751635	-115.300163	27.571555	1141.579553	-176.896886	17.210113	1150.382046	-287.103477	127.160001	969.814772	-50.563508	103.717533	1008.367781	-435.027715	210.477166	855.687905	-53.777883	276.965897	799.312132	-60.685206	301.789813	714.044367	-66.964540	303.067799	815.318500	-81.136170	334.405448	615.053481	-96.337977	316.995497	600.615016	-193.432951	256.008560	545.020940	-66.581508	221.596347	463.312421	-80.135902	150.857045	410.823523	-80.691267	242.293547	451.101722	-112.471546	86.814488	334.380460	-81.887181	95.012965	342.937361	-160.757385	-0.949282	329.595432	-121.671667	238.539037	218.731464	-125.479330	156.734280	235.421941	-60.492903	228.092398	951.499414	-434.514025	313.277635	950.836313	-430.655778	324.337533	984.049760	-415.132765	391.019254	904.583172	-433.139694	480.028474	847.071370	-415.625035	500.492413	838.233401	-316.004047	355.659950	507.504988	-409.292208	374.383718	514.625507	-338.927270	279.960808	482.488316	-371.267310	438.332798	412.524530	-433.409642	450.791062	751.789170	-434.067642	442.609626	665.915860	-421.753664	390.817724	593.775880	-417.784789	467.224155	660.817297	-391.436692	530.576915	413.824546	-364.167520	-65.219956	852.789179	-240.675837	21.161181	83.958007	-442.202180	21.177785	83.957632	-43.955596	
252	1.2600	467.351184	1331.308108	-86.898005	478.955959	1304.969470	-423.865502	434.997292	1358.947195	-242.363405	439.752026	1224.598954	-252.000408	504.356146	1087.239534	2.049585	692.367568	910.431382	-39.561974	453.370046	1034.994808	-512.068425	671.366125	907.639183	-455.643723	-2.936425	1109.292980	-235.814386	128.212183	1125.973283	-385.313509	145.877650	1121.461853	-92.508348	178.742203	1074.467392	-366.088913	194.420424	1069.729100	-115.277402	27.569668	1141.563156	-176.857516	17.213573	1150.374044	-287.077456	127.151355	969.797458	-50.554211	103.721689	1008.395570	-435.019224	210.462854	855.674325	-53.792091	276.961829	799.295122	-60.705317	301.798341	714.040801	-66.977012	303.059002	815.306982	-81.156778	334.391991	615.053054	-96.366891	316.987836	600.610931	-193.460126	256.052712	545.021078	-66.603082	221.626643	463.308836	-80.142941	150.888614	410.802164	-80.689731	242.313828	451.086827	-112.487491	86.864817	334.372252	-81.872040	94.999076	342.943576	-160.747983	-0.927206	329.587138	-121.653917	238.569460	218.703895	-125.462851	156.748264	235.388266	-60.485294	228.099403	951.552849	-434.529205	313.289480	950.873596	-430.660330	324.337201	984.089913	-415.136420	391.032278	904.608759	-433.133203	480.040375	847.097066	-415.624801	500.513525	838.266493	-315.998844	355.669438	507.531605	-409.289263	374.377770	514.645158	-338.957591	279.966719	482.554649	-371.258623	438.319080	412.551264	-433.423690	450.799451	751.815359	-434.065246	442.625044	665.955397	-421.760109	390.828165	593.798942	-417.789099	467.228274	660.867470	-391.464564	530.572569	413.834061	-364.155887	-65.232056	852.772012	-240.683566	21.171492	83.960224	-442.214747	21.185062	83.958100	-43.950794	
253	1.2650	467.371943	1331.291552	-86.876280	478.927968	1304.987607	-423.831787	435.008323	1358.976703	-242.320898	439.747640	1224.627619	-251.952606	504.364006	1087.241025	2.062311	692.348291	910.439542	-39.571198	453.374311	1035.001288	-512.005171	671.380345	907.638575	-455.642730	-2.960025	1109.286326	-235.786016	128.229781	1125.985663	-385.289193	145.879822	1121.456468	-92.457095	178.752643	1074.474891	-366.063588	194.398047	1069.729021	-115.257178	27.538319	1141.566180	-176.812696	17.097099	1150.285483	-287.048039	127.152052	969.764888	-50.543102	103.735465	1008.432425	-434.995086	210.443725	855.656033	-53.783326	276.963795	799.286737	-60.716356	301.786156	714.039294	-66.996745	303.058207	815.308388	-81.155569	334.418400	615.055657	-96.377404	316.997444	600.612348	-193.483145	256.075671	545.014194	-66.625892	221.639353	463.285188	-80.156260	150.912730	410.778192	-80.682620	242.331812	451.092761	-112.510182	86.887129	334.347437	-81.903168	95.041495	342.916417	-160.761521	-0.893212	329.574339	-121.660109	238.598768	218.685198	-125.472759	156.772995	235.372084	-60.496178	228.100975	951.573111	-434.529887	313.296128	950.899424	-430.655250	324.363113	984.128544	-415.138457	391.045656	904.648043	-433.144043	480.037305	847.153500	-415.635970	500.548684	838.297616	-316.001465	355.673802	507.564076	-409.289387	374.401622	514.675394	-338.946154	279.966601	482.602217	-371.262721	438.310555	412.578505	-433.414388	450.826714	751.855865	-434.075280	442.639479	665.984815	-421.760551	390.844447	593.854207	-417.775830	467.238990	660.908355	-391.468728	530.569459	413.831492	-364.158510	-65.229445	852.786963	-240.684724	21.161798	83.968199	-442.202781	21.175433	83.953703	-43.944799	
254	1.2700	467.361431	1331.331066	-86.835809	478.925171	1304.992528	-423.813368	434.994270	1358.994677	-242.306928	439.763078	1224.645385	-251.921010	504.371184	1087.243512	2.083780	692.356484	910.423033	-39.584883	453.377761	1035.004333	-511.950669	671.374892	907.644963	-455.623279	-2.938248	1109.285069	-235.744806	128.252538	1126.025611	-385.274573	145.875937	1121.440035	-92.435107	178.764592	1074.481538	-366.037526	194.408269	1069.708575	-115.227629	27.537402	1141.569882	-176.793555	17.102860	1150.289438	-287.024665	127.139507	969.754882	-50.512631	103.741019	1008.472539	-434.988145	210.449089	855.659559	-53.790149	276.968202	799.278167	-60.728212	301.788868	714.064695	-67.021201	303.067464	815.306722	-81.164138	334.425409	614.995558	-96.396519	316.995050	600.617991	-193.498860	256.090394	545.009591	-66.638318	221.661292	463.296639	-80.181894	150.955047	410.778949	-80.700321	242.318359	451.052899	-112.556553	86.920226	334.323721	-81.875792	95.081124	342.893738	-160.749254	-0.852856	329.550733	-121.652958	238.609585	218.648733	-125.471121	156.788604	235.355223	-60.481404	228.111816	951.609475	-434.535933	313.302423	950.945305	-430.663762	324.370601	984.144938	-415.120905	391.058487	904.680793	-433.156458	480.054295	847.177383	-415.656357	500.536829	838.335119	-315.988496	355.671730	507.611554	-409.292633	374.419952	514.724917	-338.964304	279.959409	482.667169	-371.272234	438.296058	412.597339	-433.412521	450.819608	751.889059	-434.079600	442.642207	666.008046	-421.771644	390.842960	593.890934	-417.783538	467.242059	660.943537	-391.456469	530.535160	413.843204	-364.161776	-65.229350	852.774930	-240.659888	21.162827	83.963517	-442.216320	21.181076	83.958889	-43.960104	
255	1.2750	467.371716	1331.310309	-86.780167	478.909490	1305.016380	-423.790272	435.001931	1359.026652	-242.252452	439.775268	1224.676175	-251.849360	504.368599	1087.258568	2.103768	692.334126	910.476172	-39.566949	453.368688	1035.025893	-511.914469	671.372098	907.647562	-455.635647	-2.936751	1109.296965	-235.718569	128.239407	1126.025593	-385.225027	145.878326	1121.413466	-92.414602	178.782804	1074.496747	-366.002718	194.387977	1069.711071	-115.201693	27.540502	1141.546982	-176.770157	17.096183	1150.293987	-287.009240	127.142673	969.747435	-50.512642	103.741042	1008.518405	-434.974722	210.453191	855.643452	-53.815890	276.970900	799.275763	-60.739503	301.812708	714.044361	-67.054618	303.045895	815.315192	-81.170977	334.404840	615.026751	-96.423737	317.007781	600.622866	-193.531343	256.102158	545.009257	-66.651953	221.698459	463.285479	-80.206313	150.976568	410.776524	-80.692159	242.346754	451.059771	-112.582789	86.943182	334.307031	-81.888984	95.070026	342.895473	-160.765673	-0.820590	329.548734	-121.674686	238.647120	218.566262	-125.469625	156.801173	235.321678	-60.491585	228.118063	951.634915	-434.541503	313.304078	950.980448	-430.669998	324.347027	984.172190	-415.135789	391.057775	904.707423	-433.147298	480.062967	847.221074	-415.661261	500.577910	838.356781	-316.019960	355.672707	507.649487	-409.292986	374.417722	514.758307	-338.962576	279.956476	482.706543	-371.269299	438.289709	412.621510	-433.412059	450.808192	751.924038	-434.076817	442.647230	666.042984	-421.788467	390.828300	593.948087	-417.800978	467.246841	660.983963	-391.475653	530.529900	413.867365	-364.151365	-65.222120	852.779131	-240.664909	21.176340	83.958904	-442.203814	21.166532	83.953575	-43.950839	
